<svg xmlns="http://www.w3.org/2000/svg" width="600" height="440" viewBox="0 0 600 440">
  <title>arrow-right</title>
  <path d="M582.913,236.966l0,0-180,180a24,24,0,1,1-33.941-33.942L508,244H25.938a24,24,0,1,1,0-48H508L368.968,56.971a24,24,0,1,1,33.941-33.942l180,180,0,0q.844.845,1.6,1.771c.043.051.082.1.124.157.452.562.882,1.143,1.283,1.746.055.082.1.166.159.249.375.577.728,1.171,1.053,1.781.047.088.091.177.136.265q.474.918.872,1.88c.03.073.058.147.088.221.26.654.5,1.321.7,2,.015.054.03.107.046.161.2.69.374,1.392.513,2.106.008.042.015.084.023.126.135.713.242,1.435.313,2.168,0,.037,0,.073.008.11.067.733.106,1.473.106,2.223s-.039,1.49-.106,2.223c0,.037,0,.073-.008.11-.071.733-.178,1.455-.313,2.168-.008.042-.015.084-.023.126-.139.714-.312,1.416-.513,2.106-.016.054-.031.107-.046.161-.2.681-.44,1.348-.7,2-.03.074-.058.148-.088.221q-.4.963-.872,1.88c-.045.088-.089.177-.136.265-.325.61-.678,1.2-1.053,1.781-.054.083-.1.167-.159.249-.4.6-.831,1.184-1.283,1.746-.042.052-.081.106-.124.157Q583.758,236.119,582.913,236.966Z" fill="$color-white"/>
</svg>
