<?xml version="1.0" encoding="utf-8"?>
<svg version="1.1" id="Layer_1" xmlns="http://www.w3.org/2000/svg" xmlns:xlink="http://www.w3.org/1999/xlink" x="0px" y="0px"
	 viewBox="0 0 267 266.9" style="enable-background:new 0 0 267 266.9;" xml:space="preserve">
<path d="M252.2,0H14.7C6.6,0,0,6.6,0,14.7v237.5c0,8.2,6.6,14.7,14.7,14.7h237.5l0,0c8.2,0,14.7-6.6,14.7-14.7V14.7
	C266.9,6.5,260.3,0,252.2,0z M225.5,78h-21.3c-16.8,0-20,7.9-20,19.6v25.7H224l-5.2,40.3h-34.7v103.4h-41.5V163.5h-34.8v-40.3h34.8
	V93.5c0-34.5,21-53.2,51.8-53.2c14.7,0,27.3,1,31.1,1.6L225.5,78L225.5,78z" fill="$color-white"/>
</svg>
