<?xml version="1.0" encoding="utf-8"?>
<svg version="1.1" xmlns="http://www.w3.org/2000/svg" xmlns:xlink="http://www.w3.org/1999/xlink" x="0px" y="0px"
	viewBox="0 0 512 512" style="enable-background:new 0 0 512 512;" xml:space="preserve">
<path d="M404.9,0.7H107.1C48.3,0.7,0.7,48.3,0.7,107.1v297.9c0,58.7,47.6,106.4,106.4,106.4h297.9c58.8,0,106.4-47.6,106.4-106.4
	V107.1C511.3,48.3,463.7,0.7,404.9,0.7z M170.9,404.9h-63.8v-234h63.8V404.9z M139,143.9c-20.6,0-37.2-16.8-37.2-37.5
	s16.7-37.5,37.2-37.5s37.2,16.8,37.2,37.5S159.6,143.9,139,143.9z M426.2,404.9h-63.8V285.7c0-71.7-85.1-66.2-85.1,0v119.2h-63.8
	v-234h63.8v37.6c29.7-55,148.9-59.1,148.9,52.7V404.9z" fill="$color-white"/>
</svg>
