<svg xmlns="http://www.w3.org/2000/svg" viewBox="0 0 112 112">
  <path d="M56,4a52,52,0,1,0,52,52A52,52,0,0,0,56,4ZM77.84,35.88c-.54,1.18-1,2.39-1.51,3.58-.08.21-.18.4-.26.57-8.21-8.4-17.75-11-28.8-6.62A23.73,23.73,0,0,0,33.63,48.56H72.51c-.1.28-.15.47-.23.65-.52,1.25-1.06,2.5-1.55,3.76a.8.8,0,0,1-.9.61c-3.23,0-6.47,0-9.7,0H32.48v4.86H68.32c0,.16,0,.24,0,.3-.6,1.47-1.2,2.94-1.83,4.39-.06.16-.31.26-.5.33a1.59,1.59,0,0,1-.49,0h-32A24.63,24.63,0,0,0,46.71,78.4,23.82,23.82,0,0,0,57,80.7a24.49,24.49,0,0,0,10.41-2.29A25,25,0,0,0,76,71.89c0,.35.05.54.05.74,0,1.89,0,3.79,0,5.68a1.06,1.06,0,0,1-.45.94,29.55,29.55,0,0,1-14.71,6.21l-1.58.22H54.86c-1.24-.19-2.5-.31-3.71-.59-11.54-2.67-19.06-9.7-22.63-21-.15-.48-.32-.68-.86-.68-2.55,0-5.11,0-7.66,0v-.24c.57-1.34,1.17-2.67,1.71-4a1,1,0,0,1,1.07-.73c1.54.05,3.08,0,4.64,0V53.54H20V53.3c.58-1.36,1.19-2.71,1.74-4.08a.88.88,0,0,1,1-.66c1.69,0,3.38,0,5.07,0a.57.57,0,0,0,.67-.5A29.23,29.23,0,0,1,43.84,29.44a28.57,28.57,0,0,1,15.74-3,29.49,29.49,0,0,1,18,8A1,1,0,0,1,77.84,35.88Z"
  fill="currentColor"/>
</svg>
