<svg viewBox="0 0 112 112" xmlns="http://www.w3.org/2000/svg">
  <path
    d="M87.55,99a3,3,0,0,1-2.32-1.09C84.4,96.9,64.84,73,64.84,51.7,64.84,41,74.55,29,87.55,29s22.7,12,22.7,22.7c0,21.28-19.56,45.2-20.39,46.21A3,3,0,0,1,87.55,99Zm0-64c-9.26,0-16.71,9.14-16.71,16.7,0,15,11.64,32.48,16.71,39.37,5.07-6.89,16.7-24.34,16.7-39.37C104.25,44.14,96.8,35,87.55,35Zm0,32c-7.29,0-13.23-6.4-13.23-14.26s5.94-14.26,13.23-14.26,13.22,6.4,13.22,14.26S94.84,67,87.55,67Zm0-22.52c-4,0-7.23,3.71-7.23,8.26S83.56,61,87.55,61s7.22-3.71,7.22-8.26S91.53,44.48,87.55,44.48ZM6,46m79,58a3,3,0,0,0-3-3H25.15V46a3,3,0,0,0-3-3H14.69L54.4,11.86,74.08,28.3a3,3,0,0,0,3.84-4.6L56.39,5.7a3,3,0,0,0-3.78-.06l-48.46,38A3,3,0,0,0,6,49H19.15v55a3,3,0,0,0,3,3H82A3,3,0,0,0,85,104Z"
    fill="currentColor"/>
</svg>
