<svg viewBox="0 0 112 112" xmlns="http://www.w3.org/2000/svg">
  <path
    d="M8,108a4,4,0,0,1-2.38-7.21l17.46-13A4,4,0,0,1,28,88a43.95,43.95,0,1,0-9.9-11.57,4,4,0,1,1-6.88,4.08,52,52,0,1,1,14.19,15.6l-15,11.15A4,4,0,0,1,8,108ZM44.93,41.62l3.29-2.19a3.1,3.1,0,0,0,.85-4.29L41.91,24.42a3.08,3.08,0,0,0-4.28-.85l-3.29,2.19S30.78,39.29,44.47,59.88,72.1,82.31,72.1,82.31l3.28-2.19a3.09,3.09,0,0,0,.86-4.29L69.08,65.12a3.08,3.08,0,0,0-4.28-.86l-3.29,2.19s-3.77-.56-10.64-10.84S44.93,41.62,44.93,41.62Z"
    fill="currentColor"/>
</svg>
