<svg viewBox="0 0 112 112" xmlns="http://www.w3.org/2000/svg">
  <path
    d="M99.31,23.79a10.33,10.33,0,1,0-17.78,1.44A40,40,0,0,0,27.28,83.8,10.22,10.22,0,0,0,22,82.33a10.35,10.35,0,0,0-3.31.55A46,46,0,0,1,56,10a4,4,0,0,0,0-8A54,54,0,0,0,12.69,88.21a10.33,10.33,0,1,0,17.78-1.44A40,40,0,0,0,84.72,28.2,10.22,10.22,0,0,0,90,29.67a10.35,10.35,0,0,0,3.31-.55A46,46,0,0,1,56,102a4,4,0,0,0,0,8A54,54,0,0,0,99.31,23.79ZM85.67,19.34A4.33,4.33,0,1,1,90,23.67,4.33,4.33,0,0,1,85.67,19.34ZM74.9,52c-.43-9.2-2.33-18.33-5.6-25.1A32.09,32.09,0,0,1,87.74,52ZM56,88c-4.17,0-10.09-10.78-10.9-28H66.9C66.09,77.22,60.17,88,56,88ZM45.1,52c.81-17.22,6.73-28,10.9-28S66.09,34.78,66.9,52ZM42.7,26.9c-3.27,6.77-5.17,15.9-5.6,25.1H24.26A32.09,32.09,0,0,1,42.7,26.9ZM22,97a4.33,4.33,0,1,1,4.33-4.33A4.33,4.33,0,0,1,22,97Zm2.26-37H37.1c.43,9.2,2.33,18.33,5.6,25.1A32.09,32.09,0,0,1,24.26,60Zm45,25.1c3.27-6.77,5.17-15.9,5.6-25.1H87.74A32.09,32.09,0,0,1,69.3,85.1Z"
    fill="currentColor"/>
</svg>
