<svg viewBox="0 0 112 112" xmlns="http://www.w3.org/2000/svg">
  <path d="M14,39V78a1,1,0,0,1-1,1H10a1,1,0,0,1-1-1V39a1,1,0,0,1,1-1h3A1,1,0,0,1,14,39Zm87,17H98a1,1,0,0,0-1,1V78a1,1,0,0,0,1,1h3a1,1,0,0,0,1-1V57A1,1,0,0,0,101,56Zm-8,4H17a2,2,0,0,0-2,2v1a2,2,0,0,0,2,2H37v9.73c0,1.55,2,2.47,3.65,1.68a13.6,13.6,0,0,1,6-1.41,13.83,13.83,0,0,1,8,2.57,2.74,2.74,0,0,0,3.15-.09A12.82,12.82,0,0,1,66,75a13,13,0,0,1,8,2.34,2.81,2.81,0,0,0,3.27,0,13,13,0,0,1,8-2.34A13.3,13.3,0,0,1,93,77.09c.79.54,2,.09,2-.77V62A2,2,0,0,0,93,60ZM30.11,60c6.13,0,11.51-2.15,14.64-5.41a.83.83,0,0,0,0-1.18C41.62,50.15,36.24,48,30.11,48s-11.5,2.15-14.63,5.41a.81.81,0,0,0,0,1.18C18.61,57.85,24,60,30.11,60Z" fill="currentColor"></path>
</svg>
