<svg xmlns="http://www.w3.org/2000/svg" viewBox="0 0 112 112">
  <path fill="currentColor" d="M42.59,38.13V60.07c0,1.35-6.55,2.44-14.63,2.44V82c8.08,0,14.63-1.09,14.63-2.44V104c0,2.23-6.55,4-14.63,4s-14.63-1.81-14.63-4V38.13c0-7.31,9.76-4.87,9.76-12.19V6.44c0-.68,2.18-1.22,4.87-1.22s4.88.54,4.88,1.22v19.5C32.84,33.26,42.59,30.82,42.59,38.13ZM88.91,24.72V5.22C88.91,4.55,86.73,4,84,4s-4.88.55-4.88,1.22v19.5c0,3.54-2.28,4.79-4.63,6C76.76,32,79.16,34,79.16,38.13v61.1c1.53.15,3.17.24,4.88.24,8.08,0,14.63-1.81,14.63-4V71.05c0,1.34-6.55,2.43-14.63,2.43V54c8.08,0,14.63-1.09,14.63-2.44V36.91C98.67,29.6,88.91,32,88.91,24.72ZM76.72,79.58c0,1.35-6.55,2.44-14.62,2.44V62.51c8.07,0,14.62-1.09,14.62-2.44V38.13c0-7.31-9.75-4.87-9.75-12.19V6.44c0-.68-2.18-1.22-4.87-1.22s-4.88.54-4.88,1.22v19.5c0,7.32-9.75,4.88-9.75,12.19V104c0,2.23,6.55,4,14.63,4s14.62-1.81,14.62-4Z"></path>
</svg>
