<svg xmlns="http://www.w3.org/2000/svg" width="180.622mm" height="180.622mm" viewBox="0 0 512 512">
  <title>children-games</title>
  <path d="M241.186,145.511a15.534,15.534,0,0,0-20.272-8.449L195.09,154.516l-40.817,2.389a23.265,23.265,0,0,0-13.266-5.549L99.442,147.94a23.379,23.379,0,0,0-21.866,11.141l-40.04,47.738a15.529,15.529,0,0,0-3.623,9.475l-1.9,58.554a15.53,15.53,0,0,0,31.043,1.009l1.729-53.19L93.441,188.5,78.149,221.191l-1.791,55.1a28.772,28.772,0,0,1-8.325,19.341l7.708,50.256-23.88,87.1a18.636,18.636,0,0,0,35.945,9.855l24.931-90.931a18.65,18.65,0,0,0,.448-7.753l-7.959-51.886,8.816.725,20.494,55.876,5.88,90.253a18.636,18.636,0,0,0,37.193-2.423l-6.054-92.935a18.59,18.59,0,0,0-1.1-5.205L153,290.97c1.055-12.836,7.58-92.208,8.492-103.308l37.752-2.245a15.556,15.556,0,0,0,5.183-1.151l28.315-18.48A15.534,15.534,0,0,0,241.186,145.511ZM134.9,58.823A40.353,40.353,0,1,1,94.55,99.176,40.353,40.353,0,0,1,134.9,58.823Zm120.356-3.38A34.787,34.787,0,1,1,220.472,90.23,34.787,34.787,0,0,1,255.259,55.443ZM362.648,437.56V366.169h-22.5V437.56a18.965,18.965,0,0,0,27.331,17.052A32.337,32.337,0,0,1,362.648,437.56Zm13.5-71.392v71.391h0a19,19,0,0,0,37.994,0V366.168ZM461.762,167.51c-8.223-16.907-17.863-23-23.711-25.925-4.174-2.085-8.986-2.642-13.374.254l.6-1.41a4.422,4.422,0,0,0-8.032-3.695,41.774,41.774,0,1,0-9.125,22.022A4.42,4.42,0,0,0,416.6,160.8l.646-1.516a12.962,12.962,0,0,0,6.679,8.052c5.738,2.866,20.464-1.361,35.01,3.411a2.335,2.335,0,0,0,2.828-3.241Zm-174.05,60.983a24.347,24.347,0,0,1-9.435-12.758l-1.173-.194a12.463,12.463,0,1,0-4.069,24.591l41.557,6.877Zm145.165,116c-3.366-25.5-15.05-113.981-16.712-126.568l-.044-10.664a21.742,21.742,0,0,0-21.833-21.653l-38.775.158a21.743,21.743,0,0,0-20.785,15.688l12.543,8.639,41.043-5.2-44.075,17.66-35.565-24.5-.017-.01a12.514,12.514,0,0,0-17.34,3.2l-.007.009a12.492,12.492,0,0,0,3.2,17.362l41.077,28.294a12.575,12.575,0,0,0,11.717,1.311l.009,0,48.669-19.5L354.2,258.036c-4.316,3.028-14.494,5.085-23.654-.154-4.653,55.767-2.966,35.55-7.244,86.823a4.46,4.46,0,0,0,4.437,4.827H428.464a4.454,4.454,0,0,0,4.413-5.041Z"></path>
</svg>
