<svg xmlns="http://www.w3.org/2000/svg" viewBox="0 0 112 112">
  <path fill="currentColor" d="M107.77,18.23a2.52,2.52,0,0,1,0,3.54,2.51,2.51,0,0,1-3.54,0L99,16.54l-5.23,5.23a2.51,2.51,0,0,1-3.54,0,2.52,2.52,0,0,1,0-3.54L95.46,13,90.23,7.77a2.5,2.5,0,0,1,3.54-3.54L99,9.46l5.23-5.23a2.5,2.5,0,0,1,3.54,3.54L102.54,13ZM16.54,99l5.23-5.23a2.5,2.5,0,0,0-3.54-3.54L13,95.46,7.77,90.23a2.5,2.5,0,0,0-3.54,3.54L9.46,99l-5.23,5.23a2.52,2.52,0,0,0,0,3.54,2.51,2.51,0,0,0,3.54,0L13,102.54l5.23,5.23a2.51,2.51,0,0,0,3.54,0,2.52,2.52,0,0,0,0-3.54ZM100,23.5A2.5,2.5,0,0,0,97.5,26v4a2.5,2.5,0,0,0,5,0V26A2.5,2.5,0,0,0,100,23.5ZM74.5,83v-7.8a2.5,2.5,0,0,0-5,0v7.92A2.5,2.5,0,0,0,72,85.59h.06A2.5,2.5,0,0,0,74.5,83ZM58.9,31.36a2.5,2.5,0,1,0-3.54,3.54l5.56,5.56a2.5,2.5,0,0,0,3.54-3.54ZM47.78,20.24a2.5,2.5,0,0,0-3.54,3.54l5.56,5.56a2.51,2.51,0,0,0,3.54,0,2.52,2.52,0,0,0,0-3.54Zm24,33.9a2.5,2.5,0,0,0,1.74-3.08,27.83,27.83,0,0,0-3.55-7.83A2.5,2.5,0,1,0,65.75,46a22.63,22.63,0,0,1,2.91,6.43,2.5,2.5,0,0,0,2.41,1.83A2.57,2.57,0,0,0,71.74,54.14ZM44,61a2.5,2.5,0,0,0-3.87,3.18,13.59,13.59,0,0,1,2.82,5.93,2.5,2.5,0,0,0,2.45,2,2.72,2.72,0,0,0,.49,0,2.5,2.5,0,0,0,2-2.94A18.55,18.55,0,0,0,44,61Zm56-9.89a2.5,2.5,0,0,0-2.5,2.5v7.86a2.5,2.5,0,0,0,5,0V53.58A2.5,2.5,0,0,0,100,51.08ZM45.57,74.93a2.5,2.5,0,0,0-3,1.9L40.88,84.5a2.51,2.51,0,0,0,1.9,3,2.57,2.57,0,0,0,.55.06,2.5,2.5,0,0,0,2.43-2l1.71-7.68A2.5,2.5,0,0,0,45.57,74.93ZM100,35.36a2.5,2.5,0,0,0-2.5,2.5v7.86a2.5,2.5,0,0,0,5,0V37.86A2.5,2.5,0,0,0,100,35.36ZM93.17,82.25a19.82,19.82,0,0,1-2.09,2.11l-3.41,2.91a2.5,2.5,0,0,0,3.26,3.8l3.4-2.92A23.21,23.21,0,0,0,97,85.47a2.5,2.5,0,0,0-3.82-3.22ZM100,66.8a2.5,2.5,0,0,0-2.5,2.5v1.09a18.22,18.22,0,0,1-1,5.86,2.5,2.5,0,1,0,4.74,1.59,23.27,23.27,0,0,0,1.22-7.45V69.3A2.5,2.5,0,0,0,100,66.8ZM82.24,90.07a7.43,7.43,0,0,1-5.39-1.89,2.5,2.5,0,0,0-3.34,3.72,12.39,12.39,0,0,0,8.28,3.18c.26,0,.52,0,.77,0a2.5,2.5,0,1,0-.32-5ZM27.64,56.61l7,3.52a2.5,2.5,0,0,0,2.24-4.47l-7-3.52a2.5,2.5,0,1,0-2.23,4.47Zm-11-33.27a2.5,2.5,0,0,0,1.4.43,2.48,2.48,0,0,0,2.07-1.1A9.63,9.63,0,0,1,25,19a2.5,2.5,0,0,0-1.58-4.75A14.57,14.57,0,0,0,16,19.86,2.51,2.51,0,0,0,16.66,23.34Zm25.61,67a2.5,2.5,0,0,0-3.4,1,12,12,0,0,1-4.5,4.58,2.5,2.5,0,0,0,1.25,4.66,2.43,2.43,0,0,0,1.24-.33,17.09,17.09,0,0,0,6.39-6.49A2.51,2.51,0,0,0,42.27,90.35ZM69.5,59.51v7.86a2.5,2.5,0,0,0,5,0V59.51a2.5,2.5,0,1,0-5,0ZM32,18.5h.61a15.19,15.19,0,0,1,6.06,1.25,2.5,2.5,0,1,0,2-4.59,20.29,20.29,0,0,0-8.05-1.66H32a2.5,2.5,0,1,0,0,5ZM19.59,43.29A2.5,2.5,0,1,0,15,45.23a18.79,18.79,0,0,0,5.36,7.2,2.45,2.45,0,0,0,1.59.57,2.49,2.49,0,0,0,1.59-4.42A14.09,14.09,0,0,1,19.59,43.29ZM16,39.07a2.5,2.5,0,0,0,2.5-2.5V28.71a2.5,2.5,0,0,0-5,0v7.86A2.5,2.5,0,0,0,16,39.07ZM28,97.5H24a2.5,2.5,0,0,0,0,5h4a2.5,2.5,0,0,0,0-5Z"></path>
</svg>
