<svg xmlns="http://www.w3.org/2000/svg" viewBox="0 0 112 112">
  <path fill="currentColor" d="M87.38,69.09c.54.2,1,.36,1.51.56a18.78,18.78,0,0,1,11.85,14.93,21.57,21.57,0,0,1-.6,10.4A16.6,16.6,0,0,1,92,104.56a27.53,27.53,0,0,1-10,3.15,40.07,40.07,0,0,1-4.38.27c-5.56,0-11.13,0-16.69,0-.27,0-.54,0-.85,0V35.84c0-.73,0-.74.74-.73,3.17,0,6.34,0,9.51,0a36.34,36.34,0,0,1,13,2.34A17.9,17.9,0,0,1,92.4,44.9a17.12,17.12,0,0,1,2.27,8.82,20.29,20.29,0,0,1-2.18,9.79,14.22,14.22,0,0,1-4.85,5.39ZM69.29,87.32c0,3.87,0,7.74,0,11.62,0,.51.16.64.65.64,2.57,0,5.15,0,7.72,0A16.39,16.39,0,0,0,82.53,99c5.26-1.53,8.91-4.57,9.49-10.37a10.53,10.53,0,0,0-3-9,17.2,17.2,0,0,0-12-4.81c-2.37-.07-4.74.14-7.11.21-.48,0-.64.18-.64.68C69.3,79.57,69.29,83.45,69.29,87.32Zm0-19.94c1.7-.06,3.32-.07,4.92-.19a24.6,24.6,0,0,0,3.92-.51,9.52,9.52,0,0,0,7.6-7.35,16,16,0,0,0-.28-8.72,8.71,8.71,0,0,0-4.35-5.25,16.81,16.81,0,0,0-7.22-1.72c-1.26-.06-2.54.06-3.8.11-.78,0-.79,0-.79.78V67.38ZM43.79,108V90.68l-.61,0q-15,0-30.06,0a.7.7,0,0,0-.8.58,46,46,0,0,0-1.85,9.28c-.21,2.25-.29,4.51-.43,6.76,0,.09,0,.18,0,.32-.18,0-.35,0-.53,0-2.61,0-5.22,0-7.83,0-.5,0-.6-.16-.59-.62A70.64,70.64,0,0,1,2.11,96.33a93.26,93.26,0,0,1,10-28.47A85.56,85.56,0,0,1,39.16,37.32a12.46,12.46,0,0,1,7.1-2.22A6.72,6.72,0,0,1,53,40.89a6.94,6.94,0,0,1,.1,1.29q0,32.48,0,64.95c0,.86,0,.86-.86.86-2.55,0-5.11,0-7.66,0Zm0-26.5V44.84l-.24.16A105.62,105.62,0,0,0,24.4,65a57.78,57.78,0,0,0-7.55,13.76c-.32.88-.58,1.79-.9,2.75ZM86.5,30.79a2.76,2.76,0,0,1,0-.29A26.59,26.59,0,0,0,86.05,20,24.31,24.31,0,0,0,73.46,4.13c-.43-.24-.67-.14-.86.24a14.89,14.89,0,0,0-.84,1.7,24.86,24.86,0,0,0-1,13.82,18,18,0,0,0,7.9,11.88A24.87,24.87,0,0,0,90,35.59a18.35,18.35,0,0,0,10.72-2,22.4,22.4,0,0,0,9.48-10.22c.24-.5.45-1,.74-1.65C100.92,19.94,93.1,23.64,86.5,30.79Z"></path>
</svg>
