<?xml version="1.0" encoding="UTF-8"?>
<svg width="700pt" height="700pt" version="1.1" viewBox="0 0 700 700" xmlns="http://www.w3.org/2000/svg">
 <path d="m282.08 422.08c-9.3438 0-18.129-3.6406-24.746-10.254l-107.08-107.08c-6.6133-6.6172-10.254-15.402-10.254-24.746s3.6406-18.129 10.254-24.746l107.08-107.08c6.6133-6.6133 15.398-10.254 24.746-10.254 9.3438 0 18.129 3.6406 24.746 10.254 6.6133 6.6133 10.254 15.398 10.254 24.746 0 9.3438-3.6406 18.129-10.254 24.746l-47.34 47.336h265.51c19.301 0 35 15.699 35 35s-15.699 35-35 35h-265.51l47.336 47.336c6.6133 6.6133 10.254 15.398 10.254 24.746 0 9.3438-3.6406 18.129-10.254 24.746-6.6133 6.6133-15.398 10.254-24.742 10.254z"/>
</svg>
