<?xml version="1.0" encoding="utf-8"?>
<svg version="1.1" xmlns="http://www.w3.org/2000/svg" xmlns:xlink="http://www.w3.org/1999/xlink" x="0px" y="0px"
	 viewBox="0 0 512 512" style="enable-background:new 0 0 512 512;" xml:space="preserve">
<path d="M256,46.1c68.4,0,76.5,0.3,103.4,1.5c25,1.1,38.5,5.3,47.5,8.8c11.1,4.1,21.2,10.6,29.4,19.2c8.5,8.3,15,18.3,19.2,29.4
	c3.5,9,7.7,22.6,8.8,47.5c1.2,27,1.5,35.1,1.5,103.4s-0.3,76.5-1.5,103.4c-1.1,25-5.3,38.5-8.8,47.5c-8.6,22.3-26.3,40-48.6,48.6
	c-9,3.5-22.6,7.7-47.5,8.8c-27,1.2-35.1,1.5-103.4,1.5s-76.5-0.3-103.4-1.5c-25-1.1-38.5-5.3-47.5-8.8
	c-11.1-4.1-21.2-10.6-29.4-19.2c-8.5-8.3-15-18.3-19.2-29.4c-3.5-9-7.7-22.6-8.8-47.5c-1.2-27-1.5-35.1-1.5-103.4
	s0.3-76.5,1.5-103.4c1.1-25,5.3-38.5,8.8-47.5c4.1-11.1,10.6-21.2,19.2-29.4c8.3-8.5,18.3-15,29.4-19.2c9-3.5,22.6-7.7,47.5-8.8
	C179.5,46.4,187.6,46.1,256,46.1 M256,0c-69.5,0-78.2,0.3-105.5,1.5c-27.2,1.2-45.9,5.6-62.1,11.9C71.2,19.9,55.8,29.9,43,43
	c-13,12.8-23.1,28.3-29.5,45.3c-6.3,16.3-10.7,34.9-11.9,62.1C0.3,177.8,0,186.5,0,256s0.3,78.2,1.5,105.5
	c1.2,27.2,5.6,45.9,11.9,62.1c6.4,17.1,16.5,32.6,29.5,45.3c12.8,13,28.3,23.1,45.3,29.5c16.3,6.3,34.9,10.7,62.1,11.9
	c27.3,1.2,36,1.5,105.5,1.5s78.2-0.3,105.5-1.5c27.2-1.2,45.9-5.6,62.1-11.9c34.4-13.3,61.6-40.5,74.9-74.9
	c6.3-16.3,10.7-34.9,11.9-62.1c1.2-27.3,1.5-36,1.5-105.5s-0.3-78.2-1.5-105.5c-1.2-27.2-5.6-45.9-11.9-62.1
	C492.1,71.2,482.1,55.8,469,43c-12.8-13-28.3-23.1-45.3-29.5c-16.3-6.3-34.9-10.7-62.1-11.9C334.2,0.3,325.5,0,256,0L256,0L256,0z
	 M256,124.5c-72.6,0-131.5,58.9-131.5,131.5S183.4,387.5,256,387.5S387.5,328.6,387.5,256l0,0C387.5,183.4,328.6,124.5,256,124.5z
	 M256,341.3c-47.1,0-85.3-38.2-85.3-85.3s38.2-85.3,85.3-85.3c47.1,0,85.3,38.2,85.3,85.3C341.3,303.1,303.1,341.3,256,341.3z
	 M392.7,88.6c17,0,30.7,13.8,30.7,30.7s-13.8,30.7-30.7,30.7s-30.7-13.8-30.7-30.7S375.7,88.6,392.7,88.6z" fill="$color-white"/>
</svg>
