<svg xmlns="http://www.w3.org/2000/svg" viewBox="0 0 112 112">
  <g>
    <path d="M36.14,33.81a1,1,0,0,1,1.57-.8l.29-.15V16.38a4,4,0,0,0-2.74-3.79l-19-6.34A4,4,0,0,0,11,10.05V96.12a4,4,0,0,0,2.74,3.79l19,6.34a4,4,0,0,0,5.26-3.8V34.86l-.89,0A1,1,0,0,1,36.14,33.81Zm-7.3,5.83-4.58-5.73-4.48,3.26L18.6,35.55,23,32.35l-4.42-5.53,1.57-1.24,4.47,5.59,4.59-3.33,1.18,1.62-4.52,3.28,4.53,5.65Zm4.29-4.88h0l-2,0a1,1,0,0,1-1-1,1,1,0,0,1,1-1h0l2,0a1,1,0,0,1,0,2Z"/>
    <path d="M68.64,78.83a1,1,0,0,1,.86-.7V55.55l-.28.12a1,1,0,0,1-.39.08,1,1,0,0,1-.92-.61,1,1,0,0,1,1.14-1.39l.45-.37V37.48a.93.93,0,0,1-.43.12l-.19,0-1.95-.35a1,1,0,0,1,.33-2c.67.11,1.34.23,2,.36a.77.77,0,0,1,.25.1V10.05a4,4,0,0,0-5.26-3.8l-19,6.34a4,4,0,0,0-2.74,3.79V33.27a1,1,0,0,1,.69-.24l2,.09a1,1,0,0,1,.95,1.05,1,1,0,0,1-1,.95h0l-2-.09a1,1,0,0,1-.61-.26v67.68a4,4,0,0,0,5.26,3.8l19-6.34a4,4,0,0,0,2.74-3.79v-16l0,0A1,1,0,0,1,68.64,78.83ZM61.26,34.41l2,.25a1,1,0,0,1-.13,2H63l-2-.25a1,1,0,1,1,.24-2Zm-6-.62,2,.18a1,1,0,0,1-.1,2h-.09l-2-.18a1,1,0,0,1-.91-1.08A1,1,0,0,1,55.24,33.79ZM53.93,61.1a1,1,0,0,1,1.21,1.59,13.78,13.78,0,0,0-1.41,1.22,1,1,0,0,1-1.42,0,1,1,0,0,1,0-1.41A14.46,14.46,0,0,1,53.93,61.1ZM48.16,34.28a1,1,0,0,1,1.06-.94l2,.14a1,1,0,0,1-.07,2h-.07l-2-.13A1,1,0,0,1,48.16,34.28Zm3.13,35.26a1.07,1.07,0,0,1-.25,0,1,1,0,0,1-1-.76,5.11,5.11,0,0,1-.15-1.29A5.59,5.59,0,0,1,50,66.38a1,1,0,0,1,1.18-.77A1,1,0,0,1,52,66.8a3.58,3.58,0,0,0-.07.72,3.07,3.07,0,0,0,.09.8A1,1,0,0,1,51.29,69.54Zm4.38,4a1,1,0,0,1-.83.44.94.94,0,0,1-.55-.17,14.24,14.24,0,0,1-1.7-1.29,1,1,0,0,1,1.32-1.5,13.47,13.47,0,0,0,1.49,1.13A1,1,0,0,1,55.67,73.58ZM57,60.23a1,1,0,0,1,.4-1.36c.58-.32,1.18-.64,1.81-.95a1,1,0,1,1,.89,1.79c-.6.3-1.18.6-1.74.91a.94.94,0,0,1-.48.13A1,1,0,0,1,57,60.23Zm4.06,15.94a1,1,0,0,1-.92.61.88.88,0,0,1-.39-.08c-.65-.27-1.27-.55-1.87-.83a1,1,0,0,1,.86-1.81c.57.27,1.17.54,1.79.8A1,1,0,0,1,61.09,76.17ZM62.4,57.52a1,1,0,0,1,.5-1.32l1.85-.81a1,1,0,0,1,.79,1.84l-1.82.8a1,1,0,0,1-1.32-.51Zm4.34,20.69a1,1,0,0,1-.95.68.86.86,0,0,1-.32,0l-1.91-.67a1,1,0,0,1,.68-1.88l1.87.66A1,1,0,0,1,66.74,78.21Z"/>
    <path d="M79.26,6.25A4,4,0,0,0,74,10.05V36.69l1.2.33a1,1,0,0,1-.29,2,1.45,1.45,0,0,1-.28,0L74,38.77V51.39c.58-.27,1.15-.54,1.69-.82a1,1,0,1,1,.9,1.79c-.59.29-1.2.59-1.83.88a.9.9,0,0,1-.42.1,1,1,0,0,1-.34-.07V96.12a4,4,0,0,0,2.74,3.79l19,6.34a4,4,0,0,0,5.26-3.8V16.38a4,4,0,0,0-2.74-3.79Zm3.52,35.9a1,1,0,0,1,1.3.56,4.51,4.51,0,0,1,.3,2.5,1,1,0,0,1-1,.83l-.17,0a1,1,0,0,1-.82-1.15,1.75,1.75,0,0,0,0-.4,2.78,2.78,0,0,0-.21-1A1,1,0,0,1,82.78,42.15ZM78.23,81.73a1,1,0,0,1-1,.71,1,1,0,0,1-.29,0l-1.92-.57a1,1,0,0,1-.67-1.25,1,1,0,0,1,1.24-.67l1.92.58A1,1,0,0,1,78.23,81.73Zm-.46-42.8a1,1,0,0,1,1.32-.51,18.34,18.34,0,0,1,1.89,1,1,1,0,0,1,.33,1.37,1,1,0,0,1-.86.48,1,1,0,0,1-.52-.15,15.88,15.88,0,0,0-1.66-.86A1,1,0,0,1,77.77,38.93Zm1,11.11a1,1,0,0,1,.28-1.39,15.82,15.82,0,0,0,1.5-1.12A1,1,0,1,1,81.88,49a18.33,18.33,0,0,1-1.7,1.28,1,1,0,0,1-.56.16A1,1,0,0,1,78.79,50Zm1.35,32.28a1,1,0,0,1,1.26-.65l1.92.62A1,1,0,0,1,83,84.24a1,1,0,0,1-.32-.06l-1.89-.61A1,1,0,0,1,80.14,82.32Zm11.7,9.09-4.58-5.74-4.48,3.25L81.6,87.3,86,84.11l-4.42-5.53,1.57-1.25,4.47,5.6,4.59-3.33,1.18,1.62L88.88,84.5l4.53,5.66Z"/>
  </g>
</svg>
