<svg xmlns="http://www.w3.org/2000/svg" viewBox="0 0 200 200">
  <path d="M47.38,190.88c-22.2-12.22-33-31.74-30.3-56.73C19.81,109.36,39.63,90,58.19,84.39c0,4.27-.18,10.33-.18,14.77-19.31,9.07-27.12,27.17-25.35,44.73,1.8,17.78,12.64,29.85,29.65,35.41,21.12,6.92,43.8-4.31,51.66-25.14.7-1.85,1.29-3.75,2-5.87H132.4a80.19,80.19,0,0,1-1.88,8.26C123,178.73,100.79,198,74.6,198,64.41,198,53.64,194.33,47.38,190.88ZM108.2,69c-.07-12.43-8.5-21-20.47-21-12.44,0-21,8.47-21,21q-.11,22.48,0,45c0,15.72,9.88,25.85,25.52,25.65,14.32-.19,28.63-.91,42.93-1.7,3.32-.19,5.05.54,6.52,3.62,5.37,11.26,11,22.39,16.64,33.54,2.89,5.72,7.48,7.62,12.15,5.23,4.47-2.28,5.69-7,3-12.47-7.83-15.8-15.77-31.55-23.62-47.34a9.92,9.92,0,0,0-8-5.9c-11-1.71-22-3.76-33.63-5.8C108.22,95.27,108.28,82.13,108.2,69Zm8.35-46.12A20.78,20.78,0,1,0,95.77,43.64,20.78,20.78,0,0,0,116.55,22.87Z"/>
</svg>
