<svg xmlns:xlink="http://www.w3.org/1999/xlink" xmlns="http://www.w3.org/2000/svg" viewBox="0 0 700 550" version="1.1" height="700pt" width="700pt">
 <defs>
  <symbol overflow="visible" id="v">
   <path d="m18.766-1.125c-0.96875 0.5-1.9805 0.875-3.0312 1.125-1.043 0.25781-2.1367 0.39062-3.2812 0.39062-3.3984 0-6.0898-0.94531-8.0781-2.8438-1.9922-1.9062-2.9844-4.4844-2.9844-7.7344 0-3.2578 0.99219-5.8359 2.9844-7.7344 1.9883-1.9062 4.6797-2.8594 8.0781-2.8594 1.1445 0 2.2383 0.13281 3.2812 0.39062 1.0508 0.25 2.0625 0.625 3.0312 1.125v4.2188c-0.98047-0.65625-1.9453-1.1406-2.8906-1.4531-0.94922-0.3125-1.9492-0.46875-3-0.46875-1.875 0-3.3516 0.60547-4.4219 1.8125-1.0742 1.1992-1.6094 2.8555-1.6094 4.9688 0 2.1055 0.53516 3.7617 1.6094 4.9688 1.0703 1.1992 2.5469 1.7969 4.4219 1.7969 1.0508 0 2.0508-0.14844 3-0.45312 0.94531-0.3125 1.9102-0.80078 2.8906-1.4688z"></path>
  </symbol>
  <symbol overflow="visible" id="b">
   <path d="m13.734-11.141c-0.4375-0.19531-0.87109-0.34375-1.2969-0.4375-0.41797-0.10156-0.83984-0.15625-1.2656-0.15625-1.2617 0-2.2305 0.40625-2.9062 1.2188-0.67969 0.80469-1.0156 1.9531-1.0156 3.4531v7.0625h-4.8906v-15.312h4.8906v2.5156c0.625-1 1.3438-1.7266 2.1562-2.1875 0.82031-0.46875 1.8008-0.70312 2.9375-0.70312 0.16406 0 0.34375 0.011719 0.53125 0.03125 0.19531 0.011719 0.47656 0.039062 0.84375 0.078125z"></path>
  </symbol>
  <symbol overflow="visible" id="a">
   <path d="m17.641-7.7031v1.4062h-11.453c0.125 1.1484 0.53906 2.0078 1.25 2.5781 0.70703 0.57422 1.7031 0.85938 2.9844 0.85938 1.0312 0 2.082-0.14844 3.1562-0.45312 1.082-0.3125 2.1914-0.77344 3.3281-1.3906v3.7656c-1.1562 0.4375-2.3125 0.76562-3.4688 0.98438-1.1562 0.22656-2.3125 0.34375-3.4688 0.34375-2.7734 0-4.9297-0.70312-6.4688-2.1094-1.5312-1.4062-2.2969-3.3789-2.2969-5.9219 0-2.5 0.75391-4.4609 2.2656-5.8906 1.5078-1.4375 3.582-2.1562 6.2188-2.1562 2.4062 0 4.332 0.73047 5.7812 2.1875 1.4453 1.4492 2.1719 3.3828 2.1719 5.7969zm-5.0312-1.625c0-0.92578-0.27344-1.6719-0.8125-2.2344-0.54297-0.57031-1.25-0.85938-2.125-0.85938-0.94922 0-1.7188 0.26562-2.3125 0.79688s-0.96484 1.2969-1.1094 2.2969z"></path>
  </symbol>
  <symbol overflow="visible" id="i">
   <path d="m9.2188-6.8906c-1.0234 0-1.793 0.17188-2.3125 0.51562-0.51172 0.34375-0.76562 0.85547-0.76562 1.5312 0 0.625 0.20703 1.1172 0.625 1.4688 0.41406 0.34375 0.98828 0.51562 1.7188 0.51562 0.92578 0 1.7031-0.32812 2.3281-0.98438 0.63281-0.66406 0.95312-1.4922 0.95312-2.4844v-0.5625zm7.4688-1.8438v8.7344h-4.9219v-2.2656c-0.65625 0.92969-1.3984 1.6055-2.2188 2.0312-0.82422 0.41406-1.8242 0.625-3 0.625-1.5859 0-2.8711-0.45703-3.8594-1.375-0.99219-0.92578-1.4844-2.1289-1.4844-3.6094 0-1.7891 0.61328-3.1016 1.8438-3.9375 1.2383-0.84375 3.1797-1.2656 5.8281-1.2656h2.8906v-0.39062c0-0.76953-0.30859-1.332-0.92188-1.6875-0.61719-0.36328-1.5703-0.54688-2.8594-0.54688-1.0547 0-2.0312 0.10547-2.9375 0.3125-0.89844 0.21094-1.7305 0.52344-2.5 0.9375v-3.7344c1.0391-0.25 2.0859-0.44141 3.1406-0.57812 1.0625-0.13281 2.125-0.20312 3.1875-0.20312 2.7578 0 4.75 0.54688 5.9688 1.6406 1.2266 1.0859 1.8438 2.8555 1.8438 5.3125z"></path>
  </symbol>
  <symbol overflow="visible" id="c">
   <path d="m7.7031-19.656v4.3438h5.0469v3.5h-5.0469v6.5c0 0.71094 0.14062 1.1875 0.42188 1.4375s0.83594 0.375 1.6719 0.375h2.5156v3.5h-4.1875c-1.9375 0-3.3125-0.39844-4.125-1.2031-0.80469-0.8125-1.2031-2.1797-1.2031-4.1094v-6.5h-2.4219v-3.5h2.4219v-4.3438z"></path>
  </symbol>
  <symbol overflow="visible" id="h">
   <path d="m12.766-13.078v-8.2031h4.9219v21.281h-4.9219v-2.2188c-0.66797 0.90625-1.4062 1.5703-2.2188 1.9844s-1.7578 0.625-2.8281 0.625c-1.8867 0-3.4336-0.75-4.6406-2.25-1.2109-1.5-1.8125-3.4258-1.8125-5.7812 0-2.3633 0.60156-4.2969 1.8125-5.7969 1.207-1.5 2.7539-2.25 4.6406-2.25 1.0625 0 2 0.21484 2.8125 0.64062 0.82031 0.42969 1.5664 1.0859 2.2344 1.9688zm-3.2188 9.9219c1.0391 0 1.8359-0.37891 2.3906-1.1406 0.55078-0.76953 0.82812-1.8828 0.82812-3.3438 0-1.457-0.27734-2.5664-0.82812-3.3281-0.55469-0.76953-1.3516-1.1562-2.3906-1.1562-1.043 0-1.8398 0.38672-2.3906 1.1562-0.55469 0.76172-0.82812 1.8711-0.82812 3.3281 0 1.4609 0.27344 2.5742 0.82812 3.3438 0.55078 0.76172 1.3477 1.1406 2.3906 1.1406z"></path>
  </symbol>
  <symbol overflow="visible" id="g">
   <path d="m10.5-3.1562c1.0508 0 1.8516-0.37891 2.4062-1.1406 0.55078-0.76953 0.82812-1.8828 0.82812-3.3438 0-1.457-0.27734-2.5664-0.82812-3.3281-0.55469-0.76953-1.3555-1.1562-2.4062-1.1562-1.0547 0-1.8594 0.38672-2.4219 1.1562-0.55469 0.77344-0.82812 1.8828-0.82812 3.3281 0 1.4492 0.27344 2.5586 0.82812 3.3281 0.5625 0.77344 1.3672 1.1562 2.4219 1.1562zm-3.25-9.9219c0.67578-0.88281 1.4219-1.5391 2.2344-1.9688 0.82031-0.42578 1.7656-0.64062 2.8281-0.64062 1.8945 0 3.4453 0.75 4.6562 2.25 1.207 1.5 1.8125 3.4336 1.8125 5.7969 0 2.3555-0.60547 4.2812-1.8125 5.7812-1.2109 1.5-2.7617 2.25-4.6562 2.25-1.0625 0-2.0078-0.21094-2.8281-0.625-0.8125-0.42578-1.5586-1.0859-2.2344-1.9844v2.2188h-4.8906v-21.281h4.8906z"></path>
  </symbol>
  <symbol overflow="visible" id="f">
   <path d="m0.34375-15.312h4.8906l4.125 10.391 3.5-10.391h4.8906l-6.4375 16.766c-0.64844 1.6953-1.4023 2.8828-2.2656 3.5625-0.86719 0.6875-2 1.0312-3.4062 1.0312h-2.8438v-3.2188h1.5312c0.83203 0 1.4375-0.13672 1.8125-0.40625 0.38281-0.26172 0.67969-0.73047 0.89062-1.4062l0.14062-0.42188z"></path>
  </symbol>
  <symbol overflow="visible" id="e">
   <path d="m2.5781-20.406h6.6875l4.6562 10.922 4.6719-10.922h6.6875v20.406h-4.9844v-14.938l-4.7031 11.016h-3.3281l-4.7031-11.016v14.938h-4.9844z"></path>
  </symbol>
  <symbol overflow="visible" id="u">
   <path d="m20.922-1.5156c-1.3125 0.63672-2.6797 1.1172-4.0938 1.4375-1.4062 0.3125-2.8672 0.46875-4.375 0.46875-3.3984 0-6.0898-0.94531-8.0781-2.8438-1.9922-1.9062-2.9844-4.4844-2.9844-7.7344 0-3.2891 1.0078-5.8789 3.0312-7.7656 2.0312-1.8828 4.8047-2.8281 8.3281-2.8281 1.3516 0 2.6484 0.13281 3.8906 0.39062 1.25 0.25 2.4258 0.625 3.5312 1.125v4.2188c-1.1484-0.64453-2.2812-1.125-3.4062-1.4375-1.125-0.32031-2.25-0.48438-3.375-0.48438-2.1055 0-3.7266 0.58984-4.8594 1.7656-1.125 1.168-1.6875 2.8398-1.6875 5.0156 0 2.1562 0.54688 3.8242 1.6406 5 1.0938 1.1797 2.6445 1.7656 4.6562 1.7656 0.53906 0 1.0469-0.03125 1.5156-0.09375 0.47656-0.070313 0.89844-0.17969 1.2656-0.32812v-3.9688h-3.2031v-3.5156h8.2031z"></path>
  </symbol>
  <symbol overflow="visible" id="t">
   <path d="m2.1875-5.9688v-9.3438h4.9219v1.5312c0 0.83594-0.007813 1.875-0.015625 3.125-0.011719 1.25-0.015625 2.0859-0.015625 2.5 0 1.2422 0.03125 2.1328 0.09375 2.6719 0.070313 0.54297 0.17969 0.93359 0.32812 1.1719 0.20703 0.32422 0.47266 0.57422 0.79688 0.75 0.32031 0.16797 0.69141 0.25 1.1094 0.25 1.0195 0 1.8203-0.39062 2.4062-1.1719 0.58203-0.78125 0.875-1.8672 0.875-3.2656v-7.5625h4.8906v15.312h-4.8906v-2.2188c-0.74219 0.89844-1.5234 1.5586-2.3438 1.9844-0.82422 0.41406-1.7344 0.625-2.7344 0.625-1.7617 0-3.1055-0.53906-4.0312-1.625-0.92969-1.082-1.3906-2.6602-1.3906-4.7344zm3.5-15.703h3.2188v3.3594h-3.2188zm5.4062 0h3.2188v3.3594h-3.2188z"></path>
  </symbol>
  <symbol overflow="visible" id="s">
   <path d="m2.3594-21.281h4.8906v21.281h-4.8906z"></path>
  </symbol>
  <symbol overflow="visible" id="r">
   <path d="m12.422-21.281v3.2188h-2.7031c-0.6875 0-1.1719 0.125-1.4531 0.375-0.27344 0.25-0.40625 0.6875-0.40625 1.3125v1.0625h4.1875v3.5h-4.1875v11.812h-4.8906v-11.812h-2.4375v-3.5h2.4375v-1.0625c0-1.6641 0.46094-2.8984 1.3906-3.7031 0.92578-0.80078 2.3672-1.2031 4.3281-1.2031z"></path>
  </symbol>
  <symbol overflow="visible" id="d">
   <path d="m9.6406-12.188c-1.0859 0-1.9141 0.39062-2.4844 1.1719-0.57422 0.78125-0.85938 1.9062-0.85938 3.375s0.28516 2.5938 0.85938 3.375c0.57031 0.77344 1.3984 1.1562 2.4844 1.1562 1.0625 0 1.875-0.38281 2.4375-1.1562 0.57031-0.78125 0.85938-1.9062 0.85938-3.375s-0.28906-2.5938-0.85938-3.375c-0.5625-0.78125-1.375-1.1719-2.4375-1.1719zm0-3.5c2.6328 0 4.6914 0.71484 6.1719 2.1406 1.4766 1.418 2.2188 3.3867 2.2188 5.9062 0 2.5117-0.74219 4.4805-2.2188 5.9062-1.4805 1.418-3.5391 2.125-6.1719 2.125-2.6484 0-4.7148-0.70703-6.2031-2.125-1.4922-1.4258-2.2344-3.3945-2.2344-5.9062 0-2.5195 0.74219-4.4883 2.2344-5.9062 1.4883-1.4258 3.5547-2.1406 6.2031-2.1406z"></path>
  </symbol>
  <symbol overflow="visible" id="q">
   <path d="m16.547-12.766c0.61328-0.94531 1.3477-1.6719 2.2031-2.1719 0.85156-0.5 1.7891-0.75 2.8125-0.75 1.7578 0 3.0977 0.54688 4.0156 1.6406 0.92578 1.0859 1.3906 2.6562 1.3906 4.7188v9.3281h-4.9219v-7.9844-0.35938c0.007813-0.13281 0.015625-0.32031 0.015625-0.5625 0-1.082-0.16406-1.8633-0.48438-2.3438-0.3125-0.48828-0.82422-0.73438-1.5312-0.73438-0.92969 0-1.6484 0.38672-2.1562 1.1562-0.51172 0.76172-0.77344 1.8672-0.78125 3.3125v7.5156h-4.9219v-7.9844c0-1.6953-0.14844-2.7852-0.4375-3.2656-0.29297-0.48828-0.8125-0.73438-1.5625-0.73438-0.9375 0-1.6641 0.38672-2.1719 1.1562-0.51172 0.76172-0.76562 1.8594-0.76562 3.2969v7.5312h-4.9219v-15.312h4.9219v2.2344c0.60156-0.86328 1.2891-1.5156 2.0625-1.9531 0.78125-0.4375 1.6406-0.65625 2.5781-0.65625 1.0625 0 2 0.25781 2.8125 0.76562 0.8125 0.51172 1.4258 1.2305 1.8438 2.1562z"></path>
  </symbol>
  <symbol overflow="visible" id="p">
   <path d="m17.75-9.3281v9.3281h-4.9219v-7.1094c0-1.3438-0.03125-2.2656-0.09375-2.7656s-0.16797-0.86719-0.3125-1.1094c-0.1875-0.3125-0.44922-0.55469-0.78125-0.73438-0.32422-0.17578-0.69531-0.26562-1.1094-0.26562-1.0234 0-1.8242 0.39844-2.4062 1.1875-0.58594 0.78125-0.875 1.8711-0.875 3.2656v7.5312h-4.8906v-21.281h4.8906v8.2031c0.73828-0.88281 1.5195-1.5391 2.3438-1.9688 0.83203-0.42578 1.75-0.64062 2.75-0.64062 1.7695 0 3.1133 0.54688 4.0312 1.6406 0.91406 1.0859 1.375 2.6562 1.375 4.7188z"></path>
  </symbol>
  <symbol overflow="visible" id="o">
   <path d="m2.5781-20.406h5.875l7.4219 14v-14h4.9844v20.406h-5.875l-7.4219-14v14h-4.9844z"></path>
  </symbol>
  <symbol overflow="visible" id="n">
   <path d="m2.1875-5.9688v-9.3438h4.9219v1.5312c0 0.83594-0.007813 1.875-0.015625 3.125-0.011719 1.25-0.015625 2.0859-0.015625 2.5 0 1.2422 0.03125 2.1328 0.09375 2.6719 0.070313 0.54297 0.17969 0.93359 0.32812 1.1719 0.20703 0.32422 0.47266 0.57422 0.79688 0.75 0.32031 0.16797 0.69141 0.25 1.1094 0.25 1.0195 0 1.8203-0.39062 2.4062-1.1719 0.58203-0.78125 0.875-1.8672 0.875-3.2656v-7.5625h4.8906v15.312h-4.8906v-2.2188c-0.74219 0.89844-1.5234 1.5586-2.3438 1.9844-0.82422 0.41406-1.7344 0.625-2.7344 0.625-1.7617 0-3.1055-0.53906-4.0312-1.625-0.92969-1.082-1.3906-2.6602-1.3906-4.7344z"></path>
  </symbol>
  <symbol overflow="visible" id="m">
   <path d="m17.75-9.3281v9.3281h-4.9219v-7.1406c0-1.3203-0.03125-2.2344-0.09375-2.7344s-0.16797-0.86719-0.3125-1.1094c-0.1875-0.3125-0.44922-0.55469-0.78125-0.73438-0.32422-0.17578-0.69531-0.26562-1.1094-0.26562-1.0234 0-1.8242 0.39844-2.4062 1.1875-0.58594 0.78125-0.875 1.8711-0.875 3.2656v7.5312h-4.8906v-15.312h4.8906v2.2344c0.73828-0.88281 1.5195-1.5391 2.3438-1.9688 0.83203-0.42578 1.75-0.64062 2.75-0.64062 1.7695 0 3.1133 0.54688 4.0312 1.6406 0.91406 1.0859 1.375 2.6562 1.375 4.7188z"></path>
  </symbol>
  <symbol overflow="visible" id="l">
   <path d="m2.5781-20.406h8.7344c2.5938 0 4.582 0.57812 5.9688 1.7344 1.3945 1.1484 2.0938 2.7891 2.0938 4.9219 0 2.1367-0.69922 3.7812-2.0938 4.9375-1.3867 1.1562-3.375 1.7344-5.9688 1.7344h-3.4844v7.0781h-5.25zm5.25 3.8125v5.7031h2.9219c1.0195 0 1.8047-0.25 2.3594-0.75 0.5625-0.5 0.84375-1.2031 0.84375-2.1094 0-0.91406-0.28125-1.6172-0.84375-2.1094-0.55469-0.48828-1.3398-0.73438-2.3594-0.73438z"></path>
  </symbol>
  <symbol overflow="visible" id="k">
   <path d="m2.3594-15.312h4.8906v15.031c0 2.0508-0.49609 3.6172-1.4844 4.7031-0.98047 1.082-2.4062 1.625-4.2812 1.625h-2.4219v-3.2188h0.85938c0.92578 0 1.5625-0.21094 1.9062-0.625 0.35156-0.41797 0.53125-1.2461 0.53125-2.4844zm0-5.9688h4.8906v4h-4.8906z"></path>
  </symbol>
  <symbol overflow="visible" id="j">
   <path d="m14.719-14.828v3.9844c-0.65625-0.45703-1.3242-0.79688-2-1.0156-0.66797-0.21875-1.3594-0.32812-2.0781-0.32812-1.3672 0-2.4336 0.40234-3.2031 1.2031-0.76172 0.79297-1.1406 1.9062-1.1406 3.3438 0 1.4297 0.37891 2.543 1.1406 3.3438 0.76953 0.79297 1.8359 1.1875 3.2031 1.1875 0.75781 0 1.4844-0.10938 2.1719-0.32812 0.6875-0.22656 1.3203-0.56641 1.9062-1.0156v4c-0.76172 0.28125-1.5391 0.48828-2.3281 0.625-0.78125 0.14453-1.5742 0.21875-2.375 0.21875-2.7617 0-4.9219-0.70703-6.4844-2.125-1.5547-1.4141-2.3281-3.3828-2.3281-5.9062 0-2.5312 0.77344-4.5039 2.3281-5.9219 1.5625-1.4141 3.7227-2.125 6.4844-2.125 0.80078 0 1.5938 0.074219 2.375 0.21875 0.78125 0.13672 1.5547 0.35156 2.3281 0.64062z"></path>
  </symbol>
 </defs>
 <g>
  <path d="m305.82 229.27h0.95312c11.406-0.17188 21.863-6.3828 27.469-16.316 5.6055-9.9375 5.5156-22.102-0.23828-31.949-5.75-9.8516-16.301-15.91-27.707-15.91-11.41 0-21.957 6.0586-27.711 15.91-5.75 9.8477-5.8438 22.012-0.23828 31.949 5.6094 9.9336 16.066 16.145 27.473 16.316zm0.95312-54.039v-0.003906c7.6992-0.078125 14.863 3.957 18.781 10.586 3.9219 6.6328 4.0078 14.852 0.22656 21.562-3.7852 6.7109-10.859 10.895-18.562 10.973h-0.50391c-7.7031 0-14.82-4.1094-18.672-10.781-3.8516-6.668-3.8516-14.887 0-21.559 3.8516-6.6719 10.969-10.781 18.672-10.781z"></path>
  <path d="m387.8 229.27c8.6133 0 16.875-3.4219 22.965-9.5156 6.0938-6.0898 9.5156-14.352 9.5156-22.965 0-8.6172-3.4219-16.875-9.5156-22.969-6.0898-6.0898-14.352-9.5117-22.965-9.5117s-16.875 3.4219-22.969 9.5117c-6.0898 6.0938-9.5117 14.352-9.5117 22.969 0.015626 8.6094 3.4414 16.863 9.5273 22.949 6.0898 6.0898 14.344 9.5156 22.953 9.5312zm0-54.039v-0.003906c5.7188-0.011718 11.215 2.2461 15.266 6.2812 4.0547 4.0391 6.3398 9.5195 6.3477 15.242 0.011719 5.7227-2.2539 11.211-6.293 15.262-4.0391 4.0508-9.5234 6.332-15.246 6.3359s-11.211-2.2656-15.258-6.3086c-4.0469-4.043-6.3203-9.5312-6.3203-15.25 0.015625-5.7031 2.2812-11.172 6.3086-15.211 4.0312-4.0391 9.4922-6.3203 15.195-6.3516z"></path>
  <path d="m441.84 218.4c-11.293 0.46875-21.535 6.7656-27.051 16.633-5.5156 9.8672-5.5156 21.887 0 31.754 5.5156 9.8672 15.758 16.16 27.051 16.629 11.293-0.46875 21.535-6.7617 27.051-16.629 5.5156-9.8672 5.5156-21.887 0-31.754s-15.758-16.164-27.051-16.633zm0 54.039v0.003906c-7.7031 0-14.82-4.1094-18.672-10.781-3.8516-6.6719-3.8516-14.891 0-21.559 3.8516-6.6719 10.969-10.781 18.672-10.781s14.82 4.1094 18.672 10.781c3.8516 6.668 3.8516 14.887 0 21.559-3.8516 6.6719-10.969 10.781-18.672 10.781z"></path>
  <path d="m285.21 250.82c0-8.6289-3.4258-16.906-9.5273-23.008-6.1016-6.1016-14.379-9.5273-23.008-9.5273s-16.906 3.4258-23.008 9.5273c-6.1016 6.1016-9.5273 14.379-9.5273 23.008 0 8.6289 3.4258 16.906 9.5273 23.008 6.1016 6.1016 14.379 9.5273 23.008 9.5273s16.906-3.4258 23.008-9.5273c6.1016-6.1016 9.5273-14.379 9.5273-23.008zm-32.535 21.559c-5.7188 0-11.203-2.2695-15.246-6.3125-4.043-4.043-6.3125-9.5273-6.3125-15.246s2.2695-11.203 6.3125-15.246 9.5273-6.3125 15.246-6.3125 11.203 2.2695 15.246 6.3125 6.3125 9.5273 6.3125 15.246c-0.011719 5.7148-2.2891 11.188-6.3281 15.23-4.043 4.0391-9.5156 6.3164-15.23 6.3281z"></path>
  <path d="m418.66 285.88c-4.1094-3.3789-8.6719-6.168-13.551-8.2852-4.1406-17.492-15.969-32.168-32.184-39.922-16.211-7.7578-35.062-7.7578-51.277 0-16.211 7.7539-28.043 22.43-32.18 39.922-16.781 7.3438-29.238 22.016-33.758 39.77-4.5234 17.75-0.60156 36.598 10.625 51.07 11.227 14.477 28.5 22.965 46.82 23.008 7.1523-0.019531 14.242-1.3125 20.945-3.8086 4.6602-1.7422 9.0977-4.0352 13.215-6.832 16.957 12.742 39.422 15.473 58.938 7.1602 19.516-8.3086 33.113-26.402 35.672-47.457 2.5586-21.059-6.3086-41.879-23.266-54.625zm0 76.551v0.003906c-8.0859 9.9102-19.766 16.227-32.488 17.57-12.723 1.3438-25.461-2.3984-35.441-10.402l-3.4727-2.8555-3.4141 2.8555c-4.0898 3.3047-8.6836 5.9336-13.609 7.7812-16.113 5.7539-34.066 2.5781-47.23-8.3555-13.164-10.93-19.582-27.996-16.887-44.895 2.6953-16.898 14.105-31.117 30.016-37.414l2.9102-1.1172 0.55859-3.0781 0.003906-0.003907c1.7656-9.7461 6.4648-18.723 13.473-25.727 7.0039-7.0039 15.98-11.707 25.727-13.473 12.68-2.3125 25.758 0.51953 36.344 7.8789 10.582 7.3555 17.797 18.629 20.047 31.32l0.83984 4.5352h3.5273c14.309 5.668 25.051 17.828 28.914 32.727 3.8633 14.898 0.38281 30.742-9.3672 42.652z"></path>
  <path d="m602 198.8c-1.1562-7.8398-2.707-15.613-4.6484-23.297-6.7188-27.355-21.484-52.07-42.391-70.953-26.855-24.562-61.961-38.129-98.355-38.004-36.395 0.12109-71.41 13.93-98.094 38.676-2.9102 2.6875-5.6016 5.6016-8.9023 8.7344v0.003907c-21.484-24.133-50.57-40.195-82.434-45.527-32.992-6.0898-67.074-0.12891-96.039 16.797-31.203 17.234-54.613 45.773-65.41 79.746-2 6.8906-3.6445 13.883-4.9258 20.945-0.55859 3.0625-1.1758 6.0859-1.8477 9.0703l-0.95312 3.4727c-0.085938 0.64844-0.085938 1.3086 0 1.9609v21.895c-0.054688 0.55859-0.054688 1.1211 0 1.6797 1.1758 6.4961 2.3516 12.098 3.9219 17.863 5.7891 27.559 17.5 53.523 34.324 76.105 21.918 29.285 47.07 55.996 74.984 79.633 23.238 19.77 44.238 37.465 66.473 54.434 14.672 11.199 30.129 21.785 44.801 32.031l1.1758 0.78516v-0.003906c7.5469 5.8203 16.789 9.0078 26.32 9.0742 8.2188-0.042969 16.266-2.3672 23.238-6.7227l9.0156-6.2734c16.801-11.594 33.602-23.574 49.953-35.895 16.352-12.32 32.93-25.816 54.543-44.801h0.003906c19.434-16.996 37.711-35.277 54.711-54.711 13.355-14.922 25.332-31.023 35.781-48.105 12.469-21.648 20.52-45.555 23.691-70.336 0.22266-1.1562 0.50391-2.3906 0.83984-3.6953 0.085937-0.70703 0.085937-1.4219 0-2.125v-20.891c0.10156-0.51563 0.17969-1.0391 0.22266-1.5664zm-11.762 27.105v-0.003906c-3.0117 23.348-10.625 45.867-22.398 66.25-10.059 16.508-21.625 32.051-34.551 46.422-16.664 19.117-34.605 37.078-53.703 53.762-21.391 18.594-38.023 32.199-53.93 44.129-15.902 11.93-33.207 24.137-49.617 35.672l-7.4492 5.207h0.003906c-5.6992 3.8203-12.449 5.7656-19.305 5.5664-6.8594-0.19922-13.48-2.5391-18.945-6.6875l-1.3438-0.95312c-14.785-10.191-30.129-20.719-44.801-31.754-22.008-16.801-42.953-34.383-66.078-54.039v0.003907c-27.121-23.188-51.539-49.355-72.801-78.008-15.957-21.387-27.043-46.004-32.48-72.129-1.5664-5.6016-2.6328-11.199-3.7539-16.801l0.003906-21.727 0.72656-3.4141c0.72656-3.1367 1.2891-6.2734 1.9023-9.3516v-0.003906c1.1875-6.6484 2.7383-13.23 4.6484-19.711 9.8672-31.316 31.348-57.668 60.031-73.641 26.746-15.656 58.242-21.145 88.707-15.457 29.637 4.8633 56.695 19.793 76.605 42.281 0.32422 0.47266 0.67969 0.92188 1.0664 1.3438 1.7539 1.7891 4.1562 2.7969 6.6641 2.8008 2.5195-0.019531 4.9297-1.0234 6.7188-2.8008 3.6406-3.6406 6.6641-6.7188 9.8008-9.6328 24.668-22.887 57.043-35.648 90.695-35.754 33.648-0.10156 66.105 12.461 90.91 35.195 19.34 17.418 33 40.246 39.203 65.52 1.8711 7.3828 3.3516 14.859 4.4219 22.402v20.777c-0.39062 1.2852-0.83984 2.6289-1.0625 4.5312z"></path>
 </g>
</svg>
