<svg xmlns="http://www.w3.org/2000/svg" viewBox="0 0 700 550" version="1.1" height="700pt" width="700pt">
 <g fill-rule="evenodd">
  <path d="m346.52 128.59c82.453 0 149.32 66.871 149.32 149.32 0 82.461-66.871 149.33-149.32 149.33s-149.32-66.871-149.32-149.33c0-82.453 66.871-149.32 149.32-149.32zm-1.2773 48.297c28.555 0 54.414 11.582 73.125 30.301 18.719 18.711 30.293 44.566 30.293 73.121 0 28.555-11.582 54.41-30.293 73.125-18.711 18.711-44.574 30.293-73.125 30.293-28.547 0-54.41-11.582-73.121-30.293-18.719-18.719-30.293-44.574-30.293-73.125 0-28.555 11.574-54.41 30.293-73.125 18.711-18.711 44.574-30.293 73.121-30.293z"></path>
  <path d="m141.38 246.66-5.3828 217.14c7.4727 17.574 24.004 17.691 31.133 0l-5.3828-217.12c62.992-11 47.23-165.01-10.18-164.71-52.988 0.49609-70.5 155.74-10.188 164.7z"></path>
  <path d="m499.59 189.82c-0.21875 54.918 23.598 54.039 38.316 54.844l-5.3516 217.69c7.8359 21.266 23.297 20.578 31.133 0l-5.3594-218.15c12.707-0.17969 37.973-0.26953 38.324-54.383l-6.0664-107.16h-9.4961v92.387l-25.344 0.058593-1.2578-92.445h-13.055l-1.1562 92.445-25.113-0.058593v-92.387h-10.078l-5.4883 107.16z"></path>
  <path d="m344.7 188.7c50.262 0 91.023 40.762 91.023 91.023 0 50.262-40.762 91.023-91.023 91.023-50.262 0-91.023-40.762-91.023-91.023 0-50.262 40.762-91.023 91.023-91.023z"></path>
 </g>
</svg>
